<mxfile host="app.diagrams.net" agent="Mozilla/5.0 (Windows NT 10.0; Win64; x64) AppleWebKit/537.36 (KHTML, like Gecko) Chrome/141.0.0.0 Safari/537.36 Edg/141.0.0.0" version="28.2.7">
  <diagram name="Page-1" id="ZHVL9b1oCGX2t57nOp5C">
    <mxGraphModel dx="1218" dy="1208" grid="1" gridSize="10" guides="1" tooltips="1" connect="1" arrows="1" fold="1" page="1" pageScale="1" pageWidth="850" pageHeight="1100" math="0" shadow="0">
      <root>
        <mxCell id="0" />
        <mxCell id="1" parent="0" />
        <mxCell id="QoXRxn1r9LVq-Bc_CrEO-31" value="" style="group" vertex="1" connectable="0" parent="1">
          <mxGeometry x="935" y="70" width="680" height="960" as="geometry" />
        </mxCell>
        <mxCell id="QoXRxn1r9LVq-Bc_CrEO-5" value="&lt;b&gt;&lt;font style=&quot;font-size: 20px;&quot;&gt;Decentralized Medical Records with AI Health Summaries project&lt;/font&gt;&lt;/b&gt;&lt;div&gt;&lt;b&gt;&lt;font style=&quot;font-size: 20px;&quot;&gt;Architecture Layout Diagram (AI Team)&amp;nbsp;&lt;/font&gt;&lt;/b&gt;&lt;/div&gt;" style="text;html=1;whiteSpace=wrap;strokeColor=none;fillColor=none;align=center;verticalAlign=middle;rounded=0;" vertex="1" parent="QoXRxn1r9LVq-Bc_CrEO-31">
          <mxGeometry width="680" height="30" as="geometry" />
        </mxCell>
        <mxCell id="QoXRxn1r9LVq-Bc_CrEO-8" style="edgeStyle=orthogonalEdgeStyle;rounded=0;orthogonalLoop=1;jettySize=auto;html=1;entryX=0.5;entryY=0;entryDx=0;entryDy=0;" edge="1" parent="QoXRxn1r9LVq-Bc_CrEO-31" source="QoXRxn1r9LVq-Bc_CrEO-6">
          <mxGeometry relative="1" as="geometry">
            <mxPoint x="340.5" y="180" as="targetPoint" />
          </mxGeometry>
        </mxCell>
        <mxCell id="QoXRxn1r9LVq-Bc_CrEO-6" value="Backend API (Node.js/Express)" style="rounded=0;whiteSpace=wrap;html=1;fontSize=14;fillColor=#fad9d5;strokeColor=#ae4132;" vertex="1" parent="QoXRxn1r9LVq-Bc_CrEO-31">
          <mxGeometry x="215" y="70" width="250" height="60" as="geometry" />
        </mxCell>
        <mxCell id="QoXRxn1r9LVq-Bc_CrEO-10" value="" style="rounded=0;whiteSpace=wrap;html=1;fillColor=#b0e3e6;strokeColor=#0e8088;" vertex="1" parent="QoXRxn1r9LVq-Bc_CrEO-31">
          <mxGeometry x="150" y="180" width="380" height="500" as="geometry" />
        </mxCell>
        <mxCell id="QoXRxn1r9LVq-Bc_CrEO-11" value="&lt;font style=&quot;font-size: 14px;&quot;&gt;AI Summary System&lt;/font&gt;" style="text;html=1;whiteSpace=wrap;strokeColor=none;fillColor=none;align=center;verticalAlign=middle;rounded=0;" vertex="1" parent="QoXRxn1r9LVq-Bc_CrEO-31">
          <mxGeometry x="245" y="190" width="190" height="30" as="geometry" />
        </mxCell>
        <mxCell id="QoXRxn1r9LVq-Bc_CrEO-17" value="" style="edgeStyle=orthogonalEdgeStyle;rounded=0;orthogonalLoop=1;jettySize=auto;html=1;" edge="1" parent="QoXRxn1r9LVq-Bc_CrEO-31" source="QoXRxn1r9LVq-Bc_CrEO-12" target="QoXRxn1r9LVq-Bc_CrEO-13">
          <mxGeometry relative="1" as="geometry" />
        </mxCell>
        <mxCell id="QoXRxn1r9LVq-Bc_CrEO-12" value="&lt;font style=&quot;font-size: 14px;&quot;&gt;Input Handler&lt;/font&gt;" style="rounded=0;whiteSpace=wrap;html=1;" vertex="1" parent="QoXRxn1r9LVq-Bc_CrEO-31">
          <mxGeometry x="205" y="230" width="270" height="60" as="geometry" />
        </mxCell>
        <mxCell id="QoXRxn1r9LVq-Bc_CrEO-18" value="" style="edgeStyle=orthogonalEdgeStyle;rounded=0;orthogonalLoop=1;jettySize=auto;html=1;" edge="1" parent="QoXRxn1r9LVq-Bc_CrEO-31" source="QoXRxn1r9LVq-Bc_CrEO-13" target="QoXRxn1r9LVq-Bc_CrEO-14">
          <mxGeometry relative="1" as="geometry" />
        </mxCell>
        <mxCell id="QoXRxn1r9LVq-Bc_CrEO-13" value="&lt;font style=&quot;font-size: 14px;&quot;&gt;Summarization Engine&lt;/font&gt;" style="rounded=0;whiteSpace=wrap;html=1;" vertex="1" parent="QoXRxn1r9LVq-Bc_CrEO-31">
          <mxGeometry x="205" y="320" width="270" height="60" as="geometry" />
        </mxCell>
        <mxCell id="QoXRxn1r9LVq-Bc_CrEO-19" value="" style="edgeStyle=orthogonalEdgeStyle;rounded=0;orthogonalLoop=1;jettySize=auto;html=1;" edge="1" parent="QoXRxn1r9LVq-Bc_CrEO-31" source="QoXRxn1r9LVq-Bc_CrEO-14" target="QoXRxn1r9LVq-Bc_CrEO-15">
          <mxGeometry relative="1" as="geometry" />
        </mxCell>
        <mxCell id="QoXRxn1r9LVq-Bc_CrEO-14" value="&lt;font style=&quot;font-size: 14px;&quot;&gt;Risk Detector&lt;/font&gt;" style="rounded=0;whiteSpace=wrap;html=1;" vertex="1" parent="QoXRxn1r9LVq-Bc_CrEO-31">
          <mxGeometry x="205" y="410" width="270" height="60" as="geometry" />
        </mxCell>
        <mxCell id="QoXRxn1r9LVq-Bc_CrEO-20" value="" style="edgeStyle=orthogonalEdgeStyle;rounded=0;orthogonalLoop=1;jettySize=auto;html=1;" edge="1" parent="QoXRxn1r9LVq-Bc_CrEO-31" source="QoXRxn1r9LVq-Bc_CrEO-15" target="QoXRxn1r9LVq-Bc_CrEO-16">
          <mxGeometry relative="1" as="geometry" />
        </mxCell>
        <mxCell id="QoXRxn1r9LVq-Bc_CrEO-15" value="&lt;font style=&quot;font-size: 14px;&quot;&gt;Summary Formatter&lt;/font&gt;" style="rounded=0;whiteSpace=wrap;html=1;" vertex="1" parent="QoXRxn1r9LVq-Bc_CrEO-31">
          <mxGeometry x="205" y="500" width="270" height="60" as="geometry" />
        </mxCell>
        <mxCell id="QoXRxn1r9LVq-Bc_CrEO-16" value="&lt;font style=&quot;font-size: 14px;&quot;&gt;AI Logger&lt;/font&gt;" style="rounded=0;whiteSpace=wrap;html=1;" vertex="1" parent="QoXRxn1r9LVq-Bc_CrEO-31">
          <mxGeometry x="205" y="590" width="270" height="60" as="geometry" />
        </mxCell>
        <mxCell id="QoXRxn1r9LVq-Bc_CrEO-21" value="Encrypted Storage / Database" style="shape=cylinder3;whiteSpace=wrap;html=1;boundedLbl=1;backgroundOutline=1;size=15;fillColor=#fad7ac;strokeColor=#b46504;fontSize=14;" vertex="1" parent="QoXRxn1r9LVq-Bc_CrEO-31">
          <mxGeometry x="283" y="780" width="115" height="130" as="geometry" />
        </mxCell>
        <mxCell id="QoXRxn1r9LVq-Bc_CrEO-23" value="" style="endArrow=classic;startArrow=classic;html=1;rounded=0;entryX=0.5;entryY=1;entryDx=0;entryDy=0;exitX=0.5;exitY=0;exitDx=0;exitDy=0;exitPerimeter=0;" edge="1" parent="QoXRxn1r9LVq-Bc_CrEO-31" source="QoXRxn1r9LVq-Bc_CrEO-21" target="QoXRxn1r9LVq-Bc_CrEO-16">
          <mxGeometry width="50" height="50" relative="1" as="geometry">
            <mxPoint x="285" y="780" as="sourcePoint" />
            <mxPoint x="335" y="730" as="targetPoint" />
          </mxGeometry>
        </mxCell>
        <mxCell id="QoXRxn1r9LVq-Bc_CrEO-24" value="Logs/ Status" style="text;html=1;whiteSpace=wrap;strokeColor=none;fillColor=none;align=center;verticalAlign=middle;rounded=0;fontSize=14;" vertex="1" parent="QoXRxn1r9LVq-Bc_CrEO-31">
          <mxGeometry x="240" y="710" width="100" height="30" as="geometry" />
        </mxCell>
        <mxCell id="QoXRxn1r9LVq-Bc_CrEO-25" value="&lt;font style=&quot;font-size: 14px;&quot;&gt;&lt;i&gt;Note:&amp;nbsp;No real patient data; summaries â‰¤120 words.&lt;/i&gt;&lt;/font&gt;" style="text;html=1;whiteSpace=wrap;strokeColor=none;fillColor=none;align=center;verticalAlign=middle;rounded=0;" vertex="1" parent="QoXRxn1r9LVq-Bc_CrEO-31">
          <mxGeometry x="165.5" y="930" width="350" height="30" as="geometry" />
        </mxCell>
        <mxCell id="QoXRxn1r9LVq-Bc_CrEO-26" value="Cleaned text" style="text;html=1;whiteSpace=wrap;strokeColor=none;fillColor=none;align=center;verticalAlign=middle;rounded=0;" vertex="1" parent="QoXRxn1r9LVq-Bc_CrEO-31">
          <mxGeometry x="330" y="290" width="122" height="30" as="geometry" />
        </mxCell>
        <mxCell id="QoXRxn1r9LVq-Bc_CrEO-27" value="Summary Draft" style="text;html=1;whiteSpace=wrap;strokeColor=none;fillColor=none;align=center;verticalAlign=middle;rounded=0;" vertex="1" parent="QoXRxn1r9LVq-Bc_CrEO-31">
          <mxGeometry x="330" y="380" width="122" height="30" as="geometry" />
        </mxCell>
        <mxCell id="QoXRxn1r9LVq-Bc_CrEO-28" value="Summary + Alerts" style="text;html=1;whiteSpace=wrap;strokeColor=none;fillColor=none;align=center;verticalAlign=middle;rounded=0;" vertex="1" parent="QoXRxn1r9LVq-Bc_CrEO-31">
          <mxGeometry x="330" y="470" width="122" height="30" as="geometry" />
        </mxCell>
        <mxCell id="QoXRxn1r9LVq-Bc_CrEO-29" value="Final Output" style="text;html=1;whiteSpace=wrap;strokeColor=none;fillColor=none;align=center;verticalAlign=middle;rounded=0;" vertex="1" parent="QoXRxn1r9LVq-Bc_CrEO-31">
          <mxGeometry x="330" y="560" width="122" height="30" as="geometry" />
        </mxCell>
      </root>
    </mxGraphModel>
  </diagram>
</mxfile>
